<svg xmlns="http://www.w3.org/2000/svg" version="1.1" xmlns:xlink="http://www.w3.org/1999/xlink" xmlns:svgjs="http://svgjs.dev/svgjs" viewBox="0 0 800 800"><defs><linearGradient x1="50%" y1="0%" x2="50%" y2="100%" id="ssscribble-grad"><stop stop-color="hsl(162, 100%, 58%)" stop-opacity="1" offset="0%"></stop><stop stop-color="hsl(270, 73%, 53%)" stop-opacity="1" offset="100%"></stop></linearGradient></defs><g fill="none" stroke-width="1.5" stroke="url(#ssscribble-grad)" stroke-linecap="round"><path d="M178.65 537.31C294.55 561.61 516.29 521.52 735.26 424.35 896.68 331.04 940.34 211.44 887.91 132.64 765.51 161.68 622.87 323.84 505.41 598.54 385.7 856.03 309.24 975.98 284.94 853.57 260.64 558.74 290.8 280.02 368.39 162.74 443.74 234.29 548.46 425.63 639.01 619.48 659.59 787.17 590.15 862.41 410.92 867.41 174.14 837.52 -57.44 794.66 -173.34 770.36 -114.95 746.06 85.02 742.62 323.9 730.39 534.17 683.28 647.93 570.13 667.56 370.59 611.71 144.9 526.4 -72.21 458.43 -161.59 382.73 -62.17 351.2 206.64 375.5 501.47 399.81 623.98 477.64 513.94 595.45 274.26 767.15 -50.85 884.69 73.14 648.24 287.33 427.17 426.62 237.04 513.01 178.65 537.31Q178.65 537.31 178.65 537.31" opacity="0.88"></path><path d="M162.66 327.25C261.7 349.34 453.82 312.7 655.91 235.74 828.04 175.18 911.41 117.52 910.41 119.19 846.03 210.84 747.15 406.18 654.64 665.14 552.43 877.78 482.81 959.08 460.72 837.58 438.63 572.21 466.16 306.81 530.08 161.04 584.31 167.32 648.71 295.25 684.14 458.4 656.18 634.04 549.38 749.89 361.05 800.08 142.77 825.82 -58.29 817.83 -157.33 795.74 -111.38 773.65 56.92 739.55 270.04 675.53 478.34 587.05 620.2 436.73 684.24 232.14 684.89 40.04 645.7 -111.32 605.27 -133.81 551.37 -4.28 527.56 252.11 549.65 517.48 571.71 639.07 637.6 566.78 729.79 370.34 808.51 127.55 882.19 -44.37 910.52 -107.08 875.45 -79.8 757.05 12.33 564.96 111.18 368.02 226.42 208.65 305.15 162.65 327.24Q162.66 327.25 162.66 327.25" opacity="0.46"></path><path d="M146.66 137.38C229.91 157.26 392.74 138.16 573.25 100.75 744.65 84.21 853.82 91.52 894.02 161.1 883.4 293.95 832.2 498.26 772.15 726.68 699.18 892.87 644.69 940.02 624.81 821.58 604.93 585.6 621.54 338.73 660.05 175.94 685.64 127.59 705.82 189.77 690.38 305 624.11 456.77 493.86 580.48 307.89 652.79 112.8 713.55 -58.08 731.07 -141.33 711.19 -106.45 691.3 31.57 635.91 215.72 540.69 411.46 433.93 566.5 279.19 661.98 101.36 710.31 -39.92 716.53 -123.19 707.77 -89.42 684.16 58.79 674.72 297.6 694.61 533.58 714.47 652.01 761.78 612.92 819.85 461.31 863.07 247.47 887.9 64.24 865.64 -42.54 796.25 -86.06 662.31 -62.34 481.15 -11.34 311.57 60.51 181.58 117.49 146.65 137.37Q146.66 137.38 146.66 137.38" opacity="0.14"></path><path d="M130.66 20.46C345.61 55.8 675.1 72.22 839.23 250.88 863.89 565.44 780.56 900.3 745.22 805.58 709.87 368.05 729.19 115.39 658.2 179.3 447.76 419.7 89.61 575.54 -125.33 540.2 12.97 504.85 359.7 285 604.09 -1.71 730.67 -111.95 746.97 112.05 782.32 549.58 817.66 644.3 865.36 338.09 785.12 69.86 587.08 -62.47 269.01 -14.89 130.65 20.45Q130.66 20.46 130.66 20.46" opacity="0.12"></path><path d="M114.59 8.9C286.88 39.83 571.08 135.66 749.79 374.31 844.98 659.01 829.53 901.67 798.61 789.52 767.68 407.54 727.12 126.97 591.4 97.25 372.15 235.31 62.88 361.13 -109.4 330.2 -5.95 299.27 281.45 117.45 517.9 -61.13 693.52 -71.95 764.9 183.54 795.83 565.52 826.76 677.67 811.37 460.08 676.29 215.91 480.38 17.8 218.04 -22.02 114.59 8.9Q114.59 8.9 114.59 8.9" opacity="0.41"></path><path d="M98.66 106.08C232.54 132.58 464.32 270.37 634.72 512.58 767 740.21 800.94 894.73 774.44 773.58 747.93 449.42 665.99 167.81 498.96 69 293.81 100.25 40.54 166.2 -93.33 139.7 -21.35 113.19 202.94 -0.75 411.3 -66.75 601.58 -2.69 705.76 257.42 732.27 581.58 758.77 702.73 702.6 569.7 547.06 376.82 373.45 169.36 170.64 79.57 98.66 106.08Q98.66 106.08 98.66 106.08" opacity="0.52"></path><path d="M82.66 284.83C181.7 306.92 358.16 444.67 502.88 644.48 640.22 801.36 699.67 879.08 677.58 757.58 655.48 492.18 556.03 233.38 389.74 96.74 216.07 42.27 21.7 43.53 -77.33 21.44 -31.37 -0.65 131.23 -41.9 297.56 -16.39 471.21 91.29 582.14 332.18 604.24 597.58 626.33 719.08 555.4 659.27 410.7 531.34 273.32 360.49 128.62 262.74 82.66 284.83Q82.66 284.83 82.66 284.83" opacity="0.32"></path><path d="M66.66 495.58C281.56 530.92 562.12 836.32 526.78 741.58 491.43 304.05 153.56 43.66 -61.33 8.32 76.97 -27.02 401.17 176.05 436.52 613.58 471.86 708.32 204.97 460.23 66.66 495.58Q66.66 495.58 66.66 495.58" opacity="0.48"></path><path d="M50.66 679.78C184.5 706.28 377.85 846.73 351.35 725.58 324.84 401.42 88.5 130.5 -45.33 104 26.64 77.49 235.2 305.42 261.71 629.58 288.21 750.73 122.64 653.27 50.66 679.78Q50.66 679.78 50.66 679.78" opacity="0.78"></path><path d="M34.66 786.26C103.31 803.93 203.04 822.8 185.37 709.58 103.5 401.12 45.98 351.45 113.77 645.58 131.44 758.8 59.88 768.58 34.66 786.26Q34.66 786.26 34.66 786.26" opacity="0.39"></path></g></svg>